<svg xmlns="http://www.w3.org/2000/svg" width="520" height="140" viewBox="0 0 520 140" role="img" aria-labelledby="title desc">
  <title id="title">Empire Granit logo</title>
  <desc id="desc">Stylized memorial arch and flame icon with Empire Granit wordmark.</desc>
  <defs>
    <linearGradient id="panel" x1="0" y1="0" x2="1" y2="1">
      <stop offset="0%" stop-color="#f5eee5"/>
      <stop offset="100%" stop-color="#e2d4c2"/>
    </linearGradient>
    <linearGradient id="stone" x1="0" y1="0" x2="0" y2="1">
      <stop offset="0%" stop-color="#5d4b3d"/>
      <stop offset="100%" stop-color="#2f2621"/>
    </linearGradient>
    <linearGradient id="flame" x1="0" y1="0" x2="0" y2="1">
      <stop offset="0%" stop-color="#d7a76f"/>
      <stop offset="100%" stop-color="#8f5d34"/>
    </linearGradient>
  </defs>

  <rect x="4" y="10" width="122" height="122" rx="22" fill="url(#panel)" stroke="#8f6b50" stroke-width="3"/>

  <rect x="31" y="86" width="68" height="12" rx="6" fill="#baa58f"/>
  <path d="M37 86V58c0-17 13-30 30-30h0c17 0 30 13 30 30v28" fill="none" stroke="url(#stone)" stroke-width="14" stroke-linecap="round"/>
  <rect x="61" y="58" width="12" height="40" rx="6" fill="#3b3029"/>
  <path d="M67 50c-7 9-7 17 0 24c7-7 7-15 0-24z" fill="url(#flame)"/>

  <text x="152" y="62" font-size="45" font-family="Georgia, 'Times New Roman', serif" letter-spacing="2" fill="#3b2f27">EMPIRE</text>
  <text x="154" y="103" font-size="35" font-family="Manrope, Arial, sans-serif" font-weight="600" letter-spacing="7" fill="#7a5a44">GRANIT</text>
  <line x1="152" y1="112" x2="500" y2="112" stroke="#b89f87" stroke-width="2"/>
</svg>
