<svg xmlns="http://www.w3.org/2000/svg" width="128" height="128" viewBox="0 0 128 128" role="img" aria-labelledby="title desc">
  <title id="title">Empire Granit icon</title>
  <desc id="desc">Memorial arch and flame emblem.</desc>
  <defs>
    <linearGradient id="panel" x1="0" y1="0" x2="1" y2="1">
      <stop offset="0%" stop-color="#f5eee5"/>
      <stop offset="100%" stop-color="#e2d4c2"/>
    </linearGradient>
    <linearGradient id="stone" x1="0" y1="0" x2="0" y2="1">
      <stop offset="0%" stop-color="#5d4b3d"/>
      <stop offset="100%" stop-color="#2f2621"/>
    </linearGradient>
    <linearGradient id="flame" x1="0" y1="0" x2="0" y2="1">
      <stop offset="0%" stop-color="#d7a76f"/>
      <stop offset="100%" stop-color="#8f5d34"/>
    </linearGradient>
  </defs>

  <rect x="3" y="3" width="122" height="122" rx="22" fill="url(#panel)" stroke="#8f6b50" stroke-width="3"/>
  <rect x="30" y="87" width="68" height="12" rx="6" fill="#baa58f"/>
  <path d="M36 87V59c0-17 13-30 30-30h0c17 0 30 13 30 30v28" fill="none" stroke="url(#stone)" stroke-width="14" stroke-linecap="round"/>
  <rect x="60" y="59" width="12" height="40" rx="6" fill="#3b3029"/>
  <path d="M66 51c-7 9-7 17 0 24c7-7 7-15 0-24z" fill="url(#flame)"/>
</svg>
